<svg width="32" height="32" viewBox="0 0 32 32" fill="none" xmlns="http://www.w3.org/2000/svg">
<path d="M23.1613 26.4357L26.948 22.7077L26.1133 21.8717L23.1613 24.7823L21.888 23.4823L21.052 24.325L23.1613 26.4357ZM9.02665 11.641H22.976V10.3077H9.02531L9.02665 11.641ZM24 29.4877C22.5146 29.4877 21.2546 28.9699 20.22 27.9343C19.1844 26.8997 18.6666 25.6397 18.6666 24.1543C18.6666 22.669 19.1844 21.4086 20.22 20.373C21.2555 19.3375 22.5155 18.8201 24 18.821C25.4844 18.8219 26.7449 19.3392 27.7813 20.373C28.8178 21.4068 29.3351 22.6672 29.3333 24.1543C29.3333 25.6388 28.816 26.8988 27.7813 27.9343C26.7449 28.9699 25.4844 29.4877 24 29.4877ZM5.33331 27.6917V7.48767C5.33331 6.89034 5.54309 6.3819 5.96265 5.96234C6.3822 5.54279 6.89065 5.33301 7.48798 5.33301H24.5133C25.1089 5.33301 25.6169 5.54279 26.0373 5.96234C26.4569 6.3819 26.6666 6.89034 26.6666 7.48767V15.413C26.4498 15.333 26.2346 15.2646 26.0213 15.2077C25.8071 15.1508 25.5778 15.1063 25.3333 15.0743V7.48767C25.3333 7.28234 25.248 7.0939 25.0773 6.92234C24.9066 6.75079 24.7182 6.66545 24.512 6.66634H7.48798C7.28265 6.66634 7.0942 6.75167 6.92265 6.92234C6.75109 7.09301 6.66576 7.28145 6.66665 7.48767V25.3997H15.1253C15.1858 25.7641 15.264 26.1206 15.36 26.469C15.4569 26.8174 15.5915 27.1499 15.764 27.4663L15.7186 27.5117L14.2053 26.4103L12.4106 27.6917L10.616 26.4103L8.82131 27.6917L7.02531 26.4103L5.33331 27.6917ZM9.02665 21.6917H15.3053C15.3551 21.4472 15.4164 21.2183 15.4893 21.005C15.5622 20.7917 15.6475 20.5761 15.7453 20.3583H9.02665V21.6917ZM9.02665 16.6663H18.7733C19.2089 16.3223 19.6755 16.0357 20.1733 15.8063C20.6711 15.5761 21.2031 15.4183 21.7693 15.333H9.02531L9.02665 16.6663Z" fill="#A80023"/>
</svg>
