<svg width="32" height="32" viewBox="0 0 32 32" fill="none" xmlns="http://www.w3.org/2000/svg">
<path fill-rule="evenodd" clip-rule="evenodd" d="M16 32C24.8368 32 32 24.8368 32 16C32 7.1632 24.8368 0 16 0C7.1632 0 0 7.1632 0 16C0 24.8368 7.1632 32 16 32ZM8.1504 26.112L26.112 8.1504C28.0264 10.6131 28.9757 13.6901 28.7815 16.8033C28.5873 19.9165 27.263 22.8517 25.0573 25.0573C22.8517 27.263 19.9165 28.5873 16.8033 28.7815C13.6901 28.9757 10.6131 28.0264 8.1504 26.112ZM5.888 23.8496C3.97355 21.3869 3.02425 18.3099 3.21846 15.1967C3.41266 12.0835 4.737 9.14832 6.94266 6.94266C9.14832 4.737 12.0835 3.41266 15.1967 3.21846C18.3099 3.02425 21.3869 3.97355 23.8496 5.888L5.888 23.8496Z" fill="black" fill-opacity="0.44"/>
</svg>
