<svg width="32" height="33" viewBox="0 0 32 33" fill="none" xmlns="http://www.w3.org/2000/svg">
<path d="M31.5 16.5C31.5 25.0604 24.5604 32 16 32C7.43956 32 0.5 25.0604 0.5 16.5C0.5 7.93956 7.43956 1 16 1C24.5604 1 31.5 7.93956 31.5 16.5ZM14.2071 24.7071L25.7071 13.2071C26.0976 12.8166 26.0976 12.1834 25.7071 11.7929L24.2929 10.3787C23.9024 9.98819 23.2692 9.98819 22.8787 10.3787L13.5 19.7574L9.12131 15.3787C8.73081 14.9882 8.09763 14.9882 7.70706 15.3787L6.29287 16.7929C5.90237 17.1834 5.90237 17.8166 6.29287 18.2071L12.7929 24.7071C13.1834 25.0976 13.8166 25.0976 14.2071 24.7071Z" fill="#2CC11F"/>
</svg>
