<svg width="32" height="32" viewBox="0 0 32 32" fill="none" xmlns="http://www.w3.org/2000/svg">
<g clip-path="url(#clip0_1581_4274)">
<path fill-rule="evenodd" clip-rule="evenodd" d="M16 32C24.8366 32 32 24.8366 32 16C32 7.16344 24.8366 0 16 0C7.16344 0 0 7.16344 0 16C0 24.8366 7.16344 32 16 32ZM16 18.6667C17.4728 18.6667 18.6667 17.4728 18.6667 16C18.6667 14.5272 17.4728 13.3333 16 13.3333C14.5272 13.3333 13.3333 14.5272 13.3333 16C13.3333 17.4728 14.5272 18.6667 16 18.6667ZM26.6667 16C26.6667 17.4728 25.4728 18.6667 24 18.6667C22.5272 18.6667 21.3333 17.4728 21.3333 16C21.3333 14.5272 22.5272 13.3333 24 13.3333C25.4728 13.3333 26.6667 14.5272 26.6667 16ZM8 18.6667C9.47276 18.6667 10.6667 17.4728 10.6667 16C10.6667 14.5272 9.47276 13.3333 8 13.3333C6.52724 13.3333 5.33333 14.5272 5.33333 16C5.33333 17.4728 6.52724 18.6667 8 18.6667Z" fill="#060B86"/>
</g>
<defs>
<clipPath id="clip0_1581_4274">
<rect width="32" height="32" fill="white"/>
</clipPath>
</defs>
</svg>
