<svg width="26" height="26" viewBox="0 0 26 26" fill="none" xmlns="http://www.w3.org/2000/svg">
<path d="M4.33317 2.16675H21.6665C22.2411 2.16675 22.7922 2.39502 23.1986 2.80135C23.6049 3.20768 23.8332 3.75878 23.8332 4.33341V17.3334C23.8332 17.908 23.6049 18.4591 23.1986 18.8655C22.7922 19.2718 22.2411 19.5001 21.6665 19.5001H15.0582L11.0498 23.5192C10.8332 23.7251 10.5623 23.8334 10.2915 23.8334H9.74984C9.46252 23.8334 9.18697 23.7193 8.9838 23.5161C8.78064 23.3129 8.6665 23.0374 8.6665 22.7501V19.5001H4.33317C3.75853 19.5001 3.20743 19.2718 2.80111 18.8655C2.39478 18.4591 2.1665 17.908 2.1665 17.3334V4.33341C2.1665 3.75878 2.39478 3.20768 2.80111 2.80135C3.20743 2.39502 3.75853 2.16675 4.33317 2.16675ZM13.2057 5.95841C12.2415 5.95841 11.4723 6.15341 10.8873 6.54341C10.2915 6.93341 9.98817 7.58341 10.0423 8.33091H12.1765C12.1765 8.02758 12.2848 7.80008 12.4582 7.64841C12.6748 7.49675 12.9132 7.42091 13.2057 7.42091C13.5415 7.42091 13.834 7.50758 14.029 7.70258C14.224 7.88675 14.3215 8.12508 14.3215 8.45008C14.3215 8.75341 14.2348 9.02425 14.0832 9.25175C13.899 9.49008 13.6715 9.68508 13.3898 9.83675C12.8265 10.1834 12.4582 10.4867 12.2307 10.7467C12.0248 11.0067 11.9165 11.3751 11.9165 11.9167H14.0832C14.0832 11.6134 14.1373 11.3751 14.2348 11.1801C14.3323 10.9959 14.5165 10.8334 14.7982 10.6709C15.2965 10.4434 15.7082 10.1401 16.0223 9.75008C16.3365 9.34925 16.499 8.92675 16.499 8.45008C16.499 7.69175 16.2065 7.08508 15.6215 6.63008C15.0365 6.18591 14.224 5.95841 13.2057 5.95841ZM11.9165 13.0001V15.1667H14.0832V13.0001H11.9165Z" fill="black"/>
</svg>
