<svg width="24" height="24" viewBox="0 0 24 24" fill="none" xmlns="http://www.w3.org/2000/svg">
<g clip-path="url(#clip0_2074_1165)">
<path d="M3.52715 21.8504C0.78824 19.0244 0.839286 14.4671 3.59211 11.6513L13.4246 1.59377C15.5019 -0.531164 18.8786 -0.531352 20.9561 1.59377C23.0134 3.69818 23.0159 7.09357 20.9561 9.20046L12.385 17.9591C10.9856 19.3906 8.6991 19.3706 7.32336 17.9124C5.99797 16.5075 6.04049 14.2808 7.39143 12.8989L14.1294 6.01605C14.4192 5.72009 14.894 5.71502 15.19 6.00476L16.2616 7.05377C16.5576 7.34355 16.5626 7.8184 16.2729 8.11437L9.53563 14.9966C9.30444 15.2331 9.29019 15.626 9.50525 15.854C9.71019 16.0713 10.0324 16.0749 10.2406 15.8618L18.8117 7.10313C19.731 6.16273 19.731 4.63165 18.8112 3.69073C17.9117 2.77071 16.4694 2.77024 15.5696 3.69073L5.73702 13.7482C4.10751 15.4151 4.08238 18.1132 5.68119 19.7629C7.27541 21.4079 9.85236 21.4099 11.4495 19.7763L19.5148 11.5264C19.8044 11.2301 20.2792 11.2248 20.5754 11.5144L21.6478 12.5627C21.944 12.8522 21.9494 13.3271 21.6598 13.6233L13.5945 21.8732C10.8019 24.7296 6.28466 24.6958 3.52715 21.8504Z" fill="#5A5252"/>
</g>
<defs>
<clipPath id="clip0_2074_1165">
<rect width="24" height="24" fill="white"/>
</clipPath>
</defs>
</svg>
