<svg width="38" height="38" viewBox="0 0 38 38" fill="none" xmlns="http://www.w3.org/2000/svg">
<path d="M19 3.1665C16.9207 3.1665 14.8618 3.57605 12.9408 4.37174C11.0198 5.16744 9.27436 6.33372 7.8041 7.80398C4.83478 10.7733 3.16663 14.8006 3.16663 18.9998C3.16663 23.1991 4.83478 27.2264 7.8041 30.1957C9.27436 31.666 11.0198 32.8322 12.9408 33.6279C14.8618 34.4236 16.9207 34.8332 19 34.8332C23.1992 34.8332 27.2265 33.165 30.1958 30.1957C33.1651 27.2264 34.8333 23.1991 34.8333 18.9998C34.8333 16.9206 34.4238 14.8617 33.6281 12.9407C32.8324 11.0197 31.6661 9.27424 30.1958 7.80398C28.7256 6.33372 26.9801 5.16744 25.0591 4.37174C23.1381 3.57605 21.0792 3.1665 19 3.1665ZM25.65 25.6498L17.4166 20.5832V11.0832H19.7916V19.3165L26.9166 23.5915L25.65 25.6498Z" fill="#FC8F2F"/>
</svg>
